<?xml version="1.0" encoding="utf-8"?>
<!-- Generator: Adobe Illustrator 16.0.0, SVG Export Plug-In . SVG Version: 6.00 Build 0)  -->
<!DOCTYPE svg PUBLIC "-//W3C//DTD SVG 1.1//EN" "http://www.w3.org/Graphics/SVG/1.1/DTD/svg11.dtd">
<svg version="1.1" id="Layer_1" xmlns="http://www.w3.org/2000/svg" xmlns:xlink="http://www.w3.org/1999/xlink" x="0px" y="0px"
	 width="1920px" height="1080px" viewBox="0 0 1920 1080" enable-background="new 0 0 1920 1080" xml:space="preserve">
<path fill="#A194C7" d="M991.542,0c0,0,92.772,46.321,75.904,117.405s-207.23,266.266-62.651,404.819s81.929,546.989,81.928,559.779
	c0,2.499-259.905-2.004-420.481-2.004C356.603,1080,0,1080,0,1080V0"/>
<path fill="#655EA9" d="M958.518-1.38c0,0,91.085,46.321,74.525,117.405c-16.563,71.084-203.463,266.266-61.514,404.819
	c141.952,138.555,80.441,546.99,80.439,559.779c0,2.5-255.181-2.004-412.838-2.004c-304.011,0-654.131,0-654.131,0L-0.804,0"/>
</svg>
