<?xml version="1.0"?>
<svg xmlns="http://www.w3.org/2000/svg" xmlns:xlink="http://www.w3.org/1999/xlink" xmlns:svgjs="http://svgjs.com/svgjs" version="1.1" width="512" height="512" x="0" y="0" viewBox="0 0 511.982 511.982" style="enable-background:new 0 0 512 512" xml:space="preserve" class=""><g><g xmlns="http://www.w3.org/2000/svg"><path d="m511.602 122.679c-2.123-13.612-12.868-24.639-29.113-30.64 14.751-24.211 15.799-49.673 1.463-64.01-14.336-14.336-39.798-13.288-64.01 1.463-6.001-16.245-17.027-26.99-30.641-29.113-17.854-2.778-35.639 9.924-46.487 31.957-6.99-5.172-14.8-7.659-22.679-7.021-24.165 1.956-40.787 32.009-37.842 68.419.839 10.367 2.96 20.009 6.133 28.45-6.14-.944-12.394-1.431-18.723-1.431-32.46 0-62.978 12.641-85.931 35.594-11.548 11.548-31.239 35.936-52.674 65.235-24.238 33.133-48.544 69.53-68.441 102.488-24.609 40.763-42.256 75.582-52.451 103.489-13.49 36.928-13.606 61.321-.355 74.571 6.567 6.567 15.871 9.851 28.081 9.851 12.427 0 27.864-3.401 46.489-10.206 27.907-10.195 62.727-27.842 103.489-52.451 69.31-41.843 144.021-97.413 167.724-121.115 22.953-22.953 35.594-53.471 35.594-85.931 0-6.327-.487-12.578-1.43-18.716 8.445 3.17 18.096 5.288 28.449 6.126 2.81.227 5.575.338 8.299.338 32.576 0 58.315-15.879 60.12-38.18.637-7.874-1.848-15.687-7.022-22.679 22.033-10.847 34.743-28.62 31.958-46.488zm-170.11 191.387c-13.622 13.622-50.948 43.215-97.167 74.989-12.149-6.288-27.195-14.102-43.08-22.575-6.625-3.534-13.293 4.573-8.568 10.409 6.04 7.46 12.527 14.678 19.465 21.616 2.451 2.451 4.942 4.836 7.463 7.172-13.626 8.958-27.742 17.899-42.031 26.526-12.943 7.814-25.234 14.884-36.864 21.221-8.454-4.408-17.629-9.226-27.121-14.289-6.621-3.532-13.285 4.578-8.563 10.41 4.276 5.281 8.787 10.434 13.512 15.459-15.052 7.497-28.753 13.52-40.98 17.987-38.712 14.142-50.357 8.208-53.565 4.998-3.209-3.208-9.145-14.851 4.998-53.565 8.99-24.607 24.223-55.129 45.296-90.808 1.683 1.775 3.384 3.54 5.125 5.281 7.138 7.138 14.571 13.798 22.26 19.985 5.836 4.696 13.921-1.91 10.422-8.534l-22.304-42.226c15.081-24.118 30.746-47.376 45.506-68.173 2.872 3.153 5.821 6.262 8.868 9.31 7.138 7.137 14.571 13.797 22.26 19.984 5.835 4.696 13.921-1.91 10.422-8.533l-23.844-45.14c18.536-24.914 34.302-44.152 43.653-53.797 6.518 8.212 13.557 16.146 21.149 23.739 3.931 3.931 7.952 7.717 12.056 11.359 5.848 5.19 14.459-1.795 10.531-8.556-8.301-14.287-15.2-29.163-20.724-44.425 15.088-8.573 32.211-13.136 50.036-13.136 27.118 0 52.613 10.561 71.788 29.736 19.176 19.175 29.736 44.67 29.736 71.788 0 8.3-.994 16.446-2.917 24.306-12.322-6.376-27.755-14.385-44.087-23.096-6.621-3.532-13.282 4.58-8.56 10.412 6.04 7.46 12.527 14.678 19.466 21.617 6.891 6.891 14.063 13.325 21.469 19.328-4.194 6.907-9.246 13.36-15.106 19.221zm117.071-158.119c-3.713 1.089-6.464 4.22-7.065 8.041-.603 3.821 1.054 7.646 4.252 9.823 7.415 5.046 11.418 11.032 10.981 16.422-.886 10.955-20.357 21.672-46.87 19.52-15.805-1.278-30.027-6.338-37.531-13.277-4.593-11.297-10.904-21.889-18.806-31.45 18.863 4.393 39.216.755 55.575-10.979 2.572-1.844.947-5.9-2.187-5.455-9.928 1.41-24.979 2.823-37.538.932.961-.925 11.485-11.832 15.427-16.557 11.952 2.048 24.497-.202 35.144-6.755 2.751-1.693 1.256-5.955-1.952-5.572-6.969.833-16.06 1.426-23.925.329 5.405-7.555 10.238-15.393 14.493-23.457 1.386-2.627-1.465-5.479-4.093-4.093-8.064 4.255-15.901 9.088-23.457 14.493-1.097-7.865-.504-16.955.329-23.925.384-3.208-3.878-4.703-5.571-1.952-6.553 10.647-8.803 23.192-6.755 35.144-4.725 3.941-15.632 14.465-16.557 15.427-1.891-12.559-.478-27.61.932-37.539.445-3.133-3.61-4.758-5.455-2.186-11.734 16.36-15.371 36.713-10.979 55.575-9.562-7.903-20.156-14.214-31.455-18.808-6.951-7.565-11.994-21.721-13.272-37.529-2.146-26.517 8.564-45.984 19.52-46.87 5.415-.431 11.376 3.566 16.422 10.981 2.177 3.199 6.001 4.855 9.823 4.252 3.821-.602 6.952-3.353 8.041-7.065 5.971-20.368 19.229-34.979 30.186-33.277 8.432 1.314 15.417 12.104 17.795 27.487.551 3.56 2.974 6.549 6.343 7.824 3.369 1.273 7.163.642 9.934-1.664 18.716-15.563 40.467-20.666 49.518-11.616 9.05 9.05 3.947 30.801-11.616 49.518-2.304 2.77-2.939 6.564-1.664 9.934s4.265 5.792 7.824 6.343c15.384 2.378 26.173 9.363 27.487 17.794 1.707 10.957-12.91 24.216-33.278 30.187z" fill="#ffffff" data-original="#000000" style=""/></g></g></svg>
