<?xml version="1.0"?>
<svg xmlns="http://www.w3.org/2000/svg" xmlns:xlink="http://www.w3.org/1999/xlink" xmlns:svgjs="http://svgjs.com/svgjs" version="1.1" width="512" height="512" x="0" y="0" viewBox="0 0 511.998 511.998" style="enable-background:new 0 0 512 512" xml:space="preserve"><g>
<g xmlns="http://www.w3.org/2000/svg">
	<g>
		<path d="M255.832,24.63h-2.07c-4.143,0-7.5,3.357-7.5,7.5s3.357,7.5,7.5,7.5h2.07c4.143,0,7.5-3.357,7.5-7.5    S259.974,24.63,255.832,24.63z" fill="#ffffff" data-original="#000000" style=""/>
	</g>
</g>
<g xmlns="http://www.w3.org/2000/svg">
	<g>
		<path d="M405.277,467.466l-0.775-36.176c-0.089-4.141-3.498-7.459-7.659-7.337c-4.141,0.089-7.426,3.518-7.337,7.658l0.716,33.435    c-103.885,0.002-99.086-0.006-99.573,0.007c-3.509-76.226-10.602-233.416-10.602-258.75c0-12.189-3.206-34.315-12.472-42.231    l13.653-13.113c5.669-5.445,8.921-13.078,8.921-20.939V64.254c8.145,0,33.813,0,42.048,0l50.833,65.164l5.726,267.194    c0.086,4.072,3.432,7.412,7.659,7.337c4.141-0.089,7.426-3.518,7.337-7.659c-1.167-54.477-7.745-361.399-8.032-374.829    c-0.254-11.859-10.114-21.454-21.919-21.454c-255.03,0-237.849-0.039-239.288,0.07c-11.434,0.863-20.405,10.438-20.649,21.776    l-2.73,127.425c-0.09,4.204,3.292,7.661,7.501,7.661c4.067,0,7.408-3.253,7.495-7.339l0.433-20.183l50.833-65.164    c12.643,0,52.836,0,68.864,0v97.066c-4.037,1.932-7.365,5.228-9.372,9.522c-4.871,10.416-7.341,22.347-7.341,35.461    c0,25.406-7.129,183.333-10.602,258.743h-50.442c-4.143,0-7.5,3.357-7.5,7.5s3.357,7.5,7.5,7.5    c54.368,0.163,52.482-0.388,54.664,0.442c5.73,2.395,4.039,8.144,4.325,9.808c0,3.694-3.005,6.699-6.699,6.699H116.656    c-3.694,0-6.699-3.005-6.699-6.699c0.251-1.306-1.327-7.366,4.041-9.697c3.511-1.135,2.848-0.183,19.504-0.553    c4.143,0,7.5-3.357,7.5-7.5s-3.357-7.5-7.5-7.5h-14.13l6.009-280.446c0.089-4.142-3.196-7.57-7.337-7.659    c-4.133-0.04-7.57,3.196-7.659,7.337l-6.1,284.655c-11.26,7.844-9.087,20.225-9.328,21.364c0,11.966,9.734,21.7,21.7,21.7h104.138    c11.966,0,21.7-9.734,21.7-21.7c-0.254-1.257,1.869-13.012-8.73-20.938c3.41-73.951,10.786-236.929,10.786-263.056    c0-10.901,1.995-20.694,5.929-29.106c1.697-3.63,6.838-3.849,8.639,0c3.935,8.414,5.93,18.207,5.93,29.106    c0,26.28,7.465,191.126,10.875,265.053c-7.998,7.942-6.16,17.361-6.419,18.942c0,11.967,9.734,21.701,21.701,21.701h104.137    c11.967,0,21.701-9.734,21.701-21.701C416.801,489.338,419.214,474.677,405.277,467.466z M382.492,104.34L351.22,64.254h30.412    C382.535,106.334,382.485,104.055,382.492,104.34z M343.358,15.007L343.358,15.007c31.758,0.048,30.568-0.116,31.81,0.138    c3.099,0.633,5.484,3.368,5.554,6.637c0.149,6.953,0.448,20.893,0.589,27.47h-37.954V15.007z M127.101,104.34l0.858-40.087h30.412    L127.101,104.34z M166.235,49.253h-37.953c0.64-29.878,0.08-28.997,2.316-31.634c1.103-1.302,2.623-2.177,4.249-2.482    c1.303-0.246,0.08-0.082,31.387-0.129V49.253z M311.407,15.007h16.951v34.246h-16.951V15.007z M198.187,49.253h-16.951V15.007    h16.951V49.253z M213.187,49.253V15.007h83.219v34.246C277.895,49.253,229.471,49.253,213.187,49.253z M261.261,149.337V64.254    h13.887v65.768C275.148,139.063,267.604,142.251,261.261,149.337z M402.042,490.298L402.042,490.298    c-0.001,3.694-3.007,6.7-6.701,6.7H291.204c-3.694,0-6.7-3.006-6.7-6.7c0.265-1.799-1.097-6.316,2.917-9.074    c1.149-0.686,2.269-1.176,3.784-1.176c111.257,0.042,104.104-0.107,105.331,0.12c3.281,0.602,5.506,3.421,5.506,6.58V490.298z" fill="#ffffff" data-original="#000000" style=""/>
	</g>
</g>
<g xmlns="http://www.w3.org/2000/svg">
</g>
<g xmlns="http://www.w3.org/2000/svg">
</g>
<g xmlns="http://www.w3.org/2000/svg">
</g>
<g xmlns="http://www.w3.org/2000/svg">
</g>
<g xmlns="http://www.w3.org/2000/svg">
</g>
<g xmlns="http://www.w3.org/2000/svg">
</g>
<g xmlns="http://www.w3.org/2000/svg">
</g>
<g xmlns="http://www.w3.org/2000/svg">
</g>
<g xmlns="http://www.w3.org/2000/svg">
</g>
<g xmlns="http://www.w3.org/2000/svg">
</g>
<g xmlns="http://www.w3.org/2000/svg">
</g>
<g xmlns="http://www.w3.org/2000/svg">
</g>
<g xmlns="http://www.w3.org/2000/svg">
</g>
<g xmlns="http://www.w3.org/2000/svg">
</g>
<g xmlns="http://www.w3.org/2000/svg">
</g>
</g></svg>
